<?xml version="1.0" encoding="UTF-8" standalone="no"?>
<!DOCTYPE svg PUBLIC "-//W3C//DTD SVG 1.1//EN"
 "http://www.w3.org/Graphics/SVG/1.1/DTD/svg11.dtd">
<!-- Generated by graphviz version 2.47.0 (20210316.0004)
 -->
<!-- Title: dependencies Pages: 1 -->
<svg width="1103pt" height="363pt"
 viewBox="0.00 0.00 1103.00 363.00" xmlns="http://www.w3.org/2000/svg" xmlns:xlink="http://www.w3.org/1999/xlink">
<g id="graph0" class="graph" transform="scale(1 1) rotate(0) translate(4 359)">
<title>dependencies</title>
<polygon fill="white" stroke="transparent" points="-4,4 -4,-359 1099,-359 1099,4 -4,4"/>
<text text-anchor="start" x="526.51" y="-42.4" font-family="Times-12" font-weight="bold" font-size="14.00">Legend</text>
<polygon fill="#ffffb3" stroke="transparent" points="313.5,-10 313.5,-30 333.5,-30 333.5,-10 313.5,-10"/>
<text text-anchor="start" x="337.13" y="-15.4" font-family="Times-12" font-size="14.00"> &#160;Declarations</text>
<polygon fill="#8dd3c7" stroke="transparent" points="426.5,-10 426.5,-30 446.5,-30 446.5,-10 426.5,-10"/>
<text text-anchor="start" x="450.23" y="-15.4" font-family="Times-12" font-size="14.00"> &#160;Module</text>
<polygon fill="#80b1d3" stroke="transparent" points="512.5,-10 512.5,-30 532.5,-30 532.5,-10 512.5,-10"/>
<text text-anchor="start" x="536.28" y="-15.4" font-family="Times-12" font-size="14.00"> &#160;Bootstrap</text>
<polygon fill="#fdb462" stroke="transparent" points="609.5,-10 609.5,-30 629.5,-30 629.5,-10 609.5,-10"/>
<text text-anchor="start" x="633.17" y="-15.4" font-family="Times-12" font-size="14.00"> &#160;Providers</text>
<polygon fill="#fb8072" stroke="transparent" points="705.5,-10 705.5,-30 725.5,-30 725.5,-10 705.5,-10"/>
<text text-anchor="start" x="729.23" y="-15.4" font-family="Times-12" font-size="14.00"> &#160;Exports</text>
<g id="clust1" class="cluster">
<title>cluster_AppModule</title>
<polygon fill="none" stroke="black" stroke-dasharray="1,5" points="429,-70 429,-347 805,-347 805,-70 429,-70"/>
</g>
<g id="clust3" class="cluster">
<title>cluster_AppModule_imports</title>
<polygon fill="none" stroke="black" points="575,-78 575,-282 785,-282 785,-78 575,-78"/>
</g>
<g id="clust6" class="cluster">
<title>cluster_AppModule_providers</title>
<polygon fill="none" stroke="black" points="437,-230 437,-282 567,-282 567,-230 437,-230"/>
</g>
<g id="clust7" class="cluster">
<title>cluster_AuthModule</title>
<polygon fill="none" stroke="black" stroke-dasharray="1,5" points="8,-146 8,-214 421,-214 421,-146 8,-146"/>
</g>
<g id="clust10" class="cluster">
<title>cluster_AuthModule_exports</title>
<polygon fill="none" stroke="black" points="307,-154 307,-206 413,-206 413,-154 307,-154"/>
</g>
<g id="clust12" class="cluster">
<title>cluster_AuthModule_providers</title>
<polygon fill="none" stroke="black" points="16,-154 16,-206 299,-206 299,-154 16,-154"/>
</g>
<g id="clust19" class="cluster">
<title>cluster_UrlsModule</title>
<polygon fill="none" stroke="black" stroke-dasharray="1,5" points="813,-70 813,-138 959,-138 959,-70 813,-70"/>
</g>
<g id="clust24" class="cluster">
<title>cluster_UrlsModule_providers</title>
<polygon fill="none" stroke="black" points="821,-78 821,-130 951,-130 951,-78 821,-78"/>
</g>
<g id="clust25" class="cluster">
<title>cluster_UsersModule</title>
<polygon fill="none" stroke="black" stroke-dasharray="1,5" points="813,-222 813,-290 1087,-290 1087,-222 813,-222"/>
</g>
<g id="clust28" class="cluster">
<title>cluster_UsersModule_exports</title>
<polygon fill="none" stroke="black" points="969,-230 969,-282 1079,-282 1079,-230 969,-230"/>
</g>
<g id="clust30" class="cluster">
<title>cluster_UsersModule_providers</title>
<polygon fill="none" stroke="black" points="821,-230 821,-282 961,-282 961,-230 821,-230"/>
</g>
<!-- AuthModule -->
<g id="node1" class="node">
<title>AuthModule</title>
<polygon fill="#8dd3c7" stroke="black" points="670.55,-274 667.55,-278 646.55,-278 643.55,-274 583.45,-274 583.45,-238 670.55,-238 670.55,-274"/>
<text text-anchor="middle" x="627" y="-251.8" font-family="Times,serif" font-size="14.00">AuthModule</text>
</g>
<!-- AppModule -->
<g id="node5" class="node">
<title>AppModule</title>
<polygon fill="#8dd3c7" stroke="black" points="731.66,-339 728.66,-343 707.66,-343 704.66,-339 648.34,-339 648.34,-303 731.66,-303 731.66,-339"/>
<text text-anchor="middle" x="690" y="-316.8" font-family="Times,serif" font-size="14.00">AppModule</text>
</g>
<!-- AuthModule&#45;&gt;AppModule -->
<g id="edge1" class="edge">
<title>AuthModule&#45;&gt;AppModule</title>
<path fill="none" stroke="black" d="M659.47,-274.11C659.47,-274.11 659.47,-292.99 659.47,-292.99"/>
<polygon fill="black" stroke="black" points="655.97,-292.99 659.47,-302.99 662.97,-292.99 655.97,-292.99"/>
</g>
<!-- AuthService  -->
<g id="node7" class="node">
<title>AuthService </title>
<polygon fill="#fb8072" stroke="black" points="404.98,-198 315.02,-198 315.02,-162 404.98,-162 404.98,-198"/>
<text text-anchor="middle" x="360" y="-175.8" font-family="Times,serif" font-size="14.00">AuthService </text>
</g>
<!-- AuthModule&#45;&gt;AuthService  -->
<g id="edge7" class="edge">
<title>AuthModule&#45;&gt;AuthService </title>
<path fill="none" stroke="black" stroke-dasharray="5,2" d="M583.37,-256C576.13,-256 570.92,-256 570.92,-256 570.92,-256 570.92,-180 570.92,-180 570.92,-180 414.99,-180 414.99,-180"/>
<polygon fill="black" stroke="black" points="414.99,-176.5 404.99,-180 414.99,-183.5 414.99,-176.5"/>
</g>
<!-- DatabaseModule -->
<g id="node2" class="node">
<title>DatabaseModule</title>
<polygon fill="#8dd3c7" stroke="black" points="777.35,-122 774.35,-126 753.35,-126 750.35,-122 666.65,-122 666.65,-86 777.35,-86 777.35,-122"/>
<text text-anchor="middle" x="722" y="-99.8" font-family="Times,serif" font-size="14.00">DatabaseModule</text>
</g>
<!-- UrlsModule -->
<g id="node3" class="node">
<title>UrlsModule</title>
<polygon fill="#8dd3c7" stroke="black" points="776.65,-198 773.65,-202 752.65,-202 749.65,-198 693.35,-198 693.35,-162 776.65,-162 776.65,-198"/>
<text text-anchor="middle" x="735" y="-175.8" font-family="Times,serif" font-size="14.00">UrlsModule</text>
</g>
<!-- DatabaseModule&#45;&gt;UrlsModule -->
<g id="edge10" class="edge">
<title>DatabaseModule&#45;&gt;UrlsModule</title>
<path fill="none" stroke="black" d="M735,-122.01C735,-122.01 735,-151.85 735,-151.85"/>
<polygon fill="black" stroke="black" points="731.5,-151.85 735,-161.85 738.5,-151.85 731.5,-151.85"/>
</g>
<!-- UsersModule -->
<g id="node4" class="node">
<title>UsersModule</title>
<polygon fill="#8dd3c7" stroke="black" points="674.92,-198 671.92,-202 650.92,-202 647.92,-198 583.08,-198 583.08,-162 674.92,-162 674.92,-198"/>
<text text-anchor="middle" x="629" y="-175.8" font-family="Times,serif" font-size="14.00">UsersModule</text>
</g>
<!-- DatabaseModule&#45;&gt;UsersModule -->
<g id="edge12" class="edge">
<title>DatabaseModule&#45;&gt;UsersModule</title>
<path fill="none" stroke="black" d="M670.64,-122.01C670.64,-122.01 670.64,-151.85 670.64,-151.85"/>
<polygon fill="black" stroke="black" points="667.14,-151.85 670.64,-161.85 674.14,-151.85 667.14,-151.85"/>
</g>
<!-- DatabaseModule&#45;&gt;AppModule -->
<g id="edge2" class="edge">
<title>DatabaseModule&#45;&gt;AppModule</title>
<path fill="none" stroke="black" d="M688.56,-122.13C688.56,-122.13 688.56,-292.77 688.56,-292.77"/>
<polygon fill="black" stroke="black" points="685.06,-292.77 688.56,-302.77 692.06,-292.77 685.06,-292.77"/>
</g>
<!-- UrlsModule&#45;&gt;AppModule -->
<g id="edge3" class="edge">
<title>UrlsModule&#45;&gt;AppModule</title>
<path fill="none" stroke="black" d="M712.5,-198.14C712.5,-198.14 712.5,-292.93 712.5,-292.93"/>
<polygon fill="black" stroke="black" points="709,-292.92 712.5,-302.93 716,-292.93 709,-292.92"/>
</g>
<!-- UsersModule&#45;&gt;AuthModule -->
<g id="edge6" class="edge">
<title>UsersModule&#45;&gt;AuthModule</title>
<path fill="none" stroke="black" d="M635.78,-198.01C635.78,-198.01 635.78,-227.85 635.78,-227.85"/>
<polygon fill="black" stroke="black" points="632.28,-227.85 635.78,-237.85 639.28,-227.85 632.28,-227.85"/>
</g>
<!-- UsersModule&#45;&gt;AppModule -->
<g id="edge4" class="edge">
<title>UsersModule&#45;&gt;AppModule</title>
<path fill="none" stroke="black" d="M675.04,-186C677.7,-186 679.33,-186 679.33,-186 679.33,-186 679.33,-292.79 679.33,-292.79"/>
<polygon fill="black" stroke="black" points="675.83,-292.79 679.33,-302.79 682.83,-292.79 675.83,-292.79"/>
</g>
<!-- UsersService  -->
<g id="node11" class="node">
<title>UsersService </title>
<polygon fill="#fb8072" stroke="black" points="1070.85,-274 977.15,-274 977.15,-238 1070.85,-238 1070.85,-274"/>
<text text-anchor="middle" x="1024" y="-251.8" font-family="Times,serif" font-size="14.00">UsersService </text>
</g>
<!-- UsersModule&#45;&gt;UsersService  -->
<g id="edge13" class="edge">
<title>UsersModule&#45;&gt;UsersService </title>
<path fill="none" stroke="black" stroke-dasharray="5,2" d="M653.28,-198.21C653.28,-203.55 653.28,-208 653.28,-208 653.28,-208 1024,-208 1024,-208 1024,-208 1024,-227.85 1024,-227.85"/>
<polygon fill="black" stroke="black" points="1020.5,-227.85 1024,-237.85 1027.5,-227.85 1020.5,-227.85"/>
</g>
<!-- AppService -->
<g id="node6" class="node">
<title>AppService</title>
<ellipse fill="#fdb462" stroke="black" cx="502" cy="-256" rx="56.74" ry="18"/>
<text text-anchor="middle" x="502" y="-251.8" font-family="Times,serif" font-size="14.00">AppService</text>
</g>
<!-- AppService&#45;&gt;AppModule -->
<g id="edge5" class="edge">
<title>AppService&#45;&gt;AppModule</title>
<path fill="none" stroke="black" d="M502,-274.11C502,-293.34 502,-321 502,-321 502,-321 638.28,-321 638.28,-321"/>
<polygon fill="black" stroke="black" points="638.28,-324.5 648.28,-321 638.28,-317.5 638.28,-324.5"/>
</g>
<!-- AuthService -->
<g id="node8" class="node">
<title>AuthService</title>
<ellipse fill="#fdb462" stroke="black" cx="232" cy="-180" rx="59.11" ry="18"/>
<text text-anchor="middle" x="232" y="-175.8" font-family="Times,serif" font-size="14.00">AuthService</text>
</g>
<!-- AuthService&#45;&gt;AuthModule -->
<g id="edge8" class="edge">
<title>AuthService&#45;&gt;AuthModule</title>
<path fill="none" stroke="black" d="M232,-198.11C232,-207.9 232,-218 232,-218 232,-218 618.28,-218 618.28,-218 618.28,-218 618.28,-227.89 618.28,-227.89"/>
<polygon fill="black" stroke="black" points="614.78,-227.89 618.28,-237.89 621.78,-227.89 614.78,-227.89"/>
</g>
<!-- LocalStrategy -->
<g id="node9" class="node">
<title>LocalStrategy</title>
<ellipse fill="#fdb462" stroke="black" cx="89" cy="-180" rx="65.41" ry="18"/>
<text text-anchor="middle" x="89" y="-175.8" font-family="Times,serif" font-size="14.00">LocalStrategy</text>
</g>
<!-- LocalStrategy&#45;&gt;AuthModule -->
<g id="edge9" class="edge">
<title>LocalStrategy&#45;&gt;AuthModule</title>
<path fill="none" stroke="black" d="M89,-198.15C89,-211.74 89,-228 89,-228 89,-228 600.79,-228 600.79,-228 600.79,-228 600.79,-228.98 600.79,-228.98"/>
<polygon fill="black" stroke="black" points="597.29,-227.79 600.79,-237.79 604.29,-227.79 597.29,-227.79"/>
</g>
<!-- UrlsService -->
<g id="node10" class="node">
<title>UrlsService</title>
<ellipse fill="#fdb462" stroke="black" cx="886" cy="-104" rx="56.73" ry="18"/>
<text text-anchor="middle" x="886" y="-99.8" font-family="Times,serif" font-size="14.00">UrlsService</text>
</g>
<!-- UrlsService&#45;&gt;UrlsModule -->
<g id="edge11" class="edge">
<title>UrlsService&#45;&gt;UrlsModule</title>
<path fill="none" stroke="black" d="M886,-122.01C886,-144.49 886,-180 886,-180 886,-180 786.66,-180 786.66,-180"/>
<polygon fill="black" stroke="black" points="786.66,-176.5 776.66,-180 786.66,-183.5 786.66,-176.5"/>
</g>
<!-- UsersService -->
<g id="node12" class="node">
<title>UsersService</title>
<ellipse fill="#fdb462" stroke="black" cx="891" cy="-256" rx="61.95" ry="18"/>
<text text-anchor="middle" x="891" y="-251.8" font-family="Times,serif" font-size="14.00">UsersService</text>
</g>
<!-- UsersService&#45;&gt;UsersModule -->
<g id="edge14" class="edge">
<title>UsersService&#45;&gt;UsersModule</title>
<path fill="none" stroke="black" d="M828.88,-256C767.89,-256 683.94,-256 683.94,-256 683.94,-256 683.94,-174 683.94,-174 683.94,-174 683.03,-174 683.03,-174"/>
<polygon fill="black" stroke="black" points="684.87,-170.5 674.87,-174 684.87,-177.5 684.87,-170.5"/>
</g>
</g>
</svg>
