<?xml version="1.0" encoding="UTF-8" standalone="no"?>
<!DOCTYPE svg PUBLIC "-//W3C//DTD SVG 1.1//EN"
 "http://www.w3.org/Graphics/SVG/1.1/DTD/svg11.dtd">
<!-- Generated by graphviz version 2.47.0 (20210316.0004)
 -->
<!-- Title: dependencies Pages: 1 -->
<svg width="504pt" height="279pt"
 viewBox="0.00 0.00 504.00 279.00" xmlns="http://www.w3.org/2000/svg" xmlns:xlink="http://www.w3.org/1999/xlink">
<g id="graph0" class="graph" transform="scale(1 1) rotate(0) translate(4 275)">
<title>dependencies</title>
<polygon fill="white" stroke="transparent" points="-4,4 -4,-275 500,-275 500,4 -4,4"/>
<text text-anchor="start" x="227.01" y="-42.4" font-family="Times-12" font-weight="bold" font-size="14.00">Legend</text>
<polygon fill="#ffffb3" stroke="transparent" points="14,-10 14,-30 34,-30 34,-10 14,-10"/>
<text text-anchor="start" x="37.63" y="-15.4" font-family="Times-12" font-size="14.00"> &#160;Declarations</text>
<polygon fill="#8dd3c7" stroke="transparent" points="127,-10 127,-30 147,-30 147,-10 127,-10"/>
<text text-anchor="start" x="150.73" y="-15.4" font-family="Times-12" font-size="14.00"> &#160;Module</text>
<polygon fill="#80b1d3" stroke="transparent" points="213,-10 213,-30 233,-30 233,-10 213,-10"/>
<text text-anchor="start" x="236.78" y="-15.4" font-family="Times-12" font-size="14.00"> &#160;Bootstrap</text>
<polygon fill="#fdb462" stroke="transparent" points="310,-10 310,-30 330,-30 330,-10 310,-10"/>
<text text-anchor="start" x="333.67" y="-15.4" font-family="Times-12" font-size="14.00"> &#160;Providers</text>
<polygon fill="#fb8072" stroke="transparent" points="406,-10 406,-30 426,-30 426,-10 406,-10"/>
<text text-anchor="start" x="429.73" y="-15.4" font-family="Times-12" font-size="14.00"> &#160;Exports</text>
<g id="clust1" class="cluster">
<title>cluster_AppModule</title>
<polygon fill="none" stroke="black" stroke-dasharray="1,5" points="31,-70 31,-263 311,-263 311,-70 31,-70"/>
</g>
<g id="clust3" class="cluster">
<title>cluster_AppModule_imports</title>
<polygon fill="none" stroke="black" points="177,-78 177,-198 303,-198 303,-78 177,-78"/>
</g>
<g id="clust6" class="cluster">
<title>cluster_AppModule_providers</title>
<polygon fill="none" stroke="black" points="39,-146 39,-198 169,-198 169,-146 39,-146"/>
</g>
<g id="clust13" class="cluster">
<title>cluster_UrlsModule</title>
<polygon fill="none" stroke="black" stroke-dasharray="1,5" points="319,-70 319,-138 465,-138 465,-70 319,-70"/>
</g>
<g id="clust18" class="cluster">
<title>cluster_UrlsModule_providers</title>
<polygon fill="none" stroke="black" points="327,-78 327,-130 457,-130 457,-78 327,-78"/>
</g>
<!-- DatabaseModule -->
<g id="node1" class="node">
<title>DatabaseModule</title>
<polygon fill="#8dd3c7" stroke="black" points="295.35,-122 292.35,-126 271.35,-126 268.35,-122 184.65,-122 184.65,-86 295.35,-86 295.35,-122"/>
<text text-anchor="middle" x="240" y="-99.8" font-family="Times,serif" font-size="14.00">DatabaseModule</text>
</g>
<!-- UrlsModule -->
<g id="node2" class="node">
<title>UrlsModule</title>
<polygon fill="#8dd3c7" stroke="black" points="288.65,-190 285.65,-194 264.65,-194 261.65,-190 205.35,-190 205.35,-154 288.65,-154 288.65,-190"/>
<text text-anchor="middle" x="247" y="-167.8" font-family="Times,serif" font-size="14.00">UrlsModule</text>
</g>
<!-- DatabaseModule&#45;&gt;UrlsModule -->
<g id="edge4" class="edge">
<title>DatabaseModule&#45;&gt;UrlsModule</title>
<path fill="none" stroke="black" d="M247,-122.22C247,-122.22 247,-143.73 247,-143.73"/>
<polygon fill="black" stroke="black" points="243.5,-143.73 247,-153.73 250.5,-143.73 243.5,-143.73"/>
</g>
<!-- AppModule -->
<g id="node3" class="node">
<title>AppModule</title>
<polygon fill="#8dd3c7" stroke="black" points="227.66,-255 224.66,-259 203.66,-259 200.66,-255 144.34,-255 144.34,-219 227.66,-219 227.66,-255"/>
<text text-anchor="middle" x="186" y="-232.8" font-family="Times,serif" font-size="14.00">AppModule</text>
</g>
<!-- DatabaseModule&#45;&gt;AppModule -->
<g id="edge1" class="edge">
<title>DatabaseModule&#45;&gt;AppModule</title>
<path fill="none" stroke="black" d="M194.87,-122.21C194.87,-122.21 194.87,-208.58 194.87,-208.58"/>
<polygon fill="black" stroke="black" points="191.37,-208.58 194.87,-218.58 198.37,-208.58 191.37,-208.58"/>
</g>
<!-- UrlsModule&#45;&gt;AppModule -->
<g id="edge2" class="edge">
<title>UrlsModule&#45;&gt;AppModule</title>
<path fill="none" stroke="black" d="M216.5,-190.11C216.5,-190.11 216.5,-208.99 216.5,-208.99"/>
<polygon fill="black" stroke="black" points="213,-208.99 216.5,-218.99 220,-208.99 213,-208.99"/>
</g>
<!-- AppService -->
<g id="node4" class="node">
<title>AppService</title>
<ellipse fill="#fdb462" stroke="black" cx="104" cy="-172" rx="56.74" ry="18"/>
<text text-anchor="middle" x="104" y="-167.8" font-family="Times,serif" font-size="14.00">AppService</text>
</g>
<!-- AppService&#45;&gt;AppModule -->
<g id="edge3" class="edge">
<title>AppService&#45;&gt;AppModule</title>
<path fill="none" stroke="black" d="M152.4,-181.59C152.4,-181.59 152.4,-208.75 152.4,-208.75"/>
<polygon fill="black" stroke="black" points="148.9,-208.75 152.4,-218.75 155.9,-208.75 148.9,-208.75"/>
</g>
<!-- UrlsService -->
<g id="node5" class="node">
<title>UrlsService</title>
<ellipse fill="#fdb462" stroke="black" cx="392" cy="-104" rx="56.73" ry="18"/>
<text text-anchor="middle" x="392" y="-99.8" font-family="Times,serif" font-size="14.00">UrlsService</text>
</g>
<!-- UrlsService&#45;&gt;UrlsModule -->
<g id="edge5" class="edge">
<title>UrlsService&#45;&gt;UrlsModule</title>
<path fill="none" stroke="black" d="M392,-122.22C392,-142.37 392,-172 392,-172 392,-172 298.94,-172 298.94,-172"/>
<polygon fill="black" stroke="black" points="298.94,-168.5 288.94,-172 298.94,-175.5 298.94,-168.5"/>
</g>
</g>
</svg>
