<?xml version="1.0" encoding="UTF-8" standalone="no"?>
<!DOCTYPE svg PUBLIC "-//W3C//DTD SVG 1.1//EN"
 "http://www.w3.org/Graphics/SVG/1.1/DTD/svg11.dtd">
<!-- Generated by graphviz version 2.47.0 (20210316.0004)
 -->
<!-- Title: dependencies Pages: 1 -->
<svg width="504pt" height="211pt"
 viewBox="0.00 0.00 504.00 211.00" xmlns="http://www.w3.org/2000/svg" xmlns:xlink="http://www.w3.org/1999/xlink">
<g id="graph0" class="graph" transform="scale(1 1) rotate(0) translate(4 207)">
<title>dependencies</title>
<polygon fill="white" stroke="transparent" points="-4,4 -4,-207 500,-207 500,4 -4,4"/>
<text text-anchor="start" x="227.01" y="-42.4" font-family="Times-12" font-weight="bold" font-size="14.00">Legend</text>
<polygon fill="#ffffb3" stroke="transparent" points="14,-10 14,-30 34,-30 34,-10 14,-10"/>
<text text-anchor="start" x="37.63" y="-15.4" font-family="Times-12" font-size="14.00"> &#160;Declarations</text>
<polygon fill="#8dd3c7" stroke="transparent" points="127,-10 127,-30 147,-30 147,-10 127,-10"/>
<text text-anchor="start" x="150.73" y="-15.4" font-family="Times-12" font-size="14.00"> &#160;Module</text>
<polygon fill="#80b1d3" stroke="transparent" points="213,-10 213,-30 233,-30 233,-10 213,-10"/>
<text text-anchor="start" x="236.78" y="-15.4" font-family="Times-12" font-size="14.00"> &#160;Bootstrap</text>
<polygon fill="#fdb462" stroke="transparent" points="310,-10 310,-30 330,-30 330,-10 310,-10"/>
<text text-anchor="start" x="333.67" y="-15.4" font-family="Times-12" font-size="14.00"> &#160;Providers</text>
<polygon fill="#fb8072" stroke="transparent" points="406,-10 406,-30 426,-30 426,-10 406,-10"/>
<text text-anchor="start" x="429.73" y="-15.4" font-family="Times-12" font-size="14.00"> &#160;Exports</text>
<g id="clust1" class="cluster">
<title>cluster_UrlsModule</title>
<polygon fill="none" stroke="black" stroke-dasharray="1,5" points="108,-70 108,-195 388,-195 388,-70 108,-70"/>
</g>
<g id="clust3" class="cluster">
<title>cluster_UrlsModule_imports</title>
<polygon fill="none" stroke="black" points="254,-78 254,-130 380,-130 380,-78 254,-78"/>
</g>
<g id="clust6" class="cluster">
<title>cluster_UrlsModule_providers</title>
<polygon fill="none" stroke="black" points="116,-78 116,-130 246,-130 246,-78 116,-78"/>
</g>
<!-- DatabaseModule -->
<g id="node1" class="node">
<title>DatabaseModule</title>
<polygon fill="#8dd3c7" stroke="black" points="372.35,-122 369.35,-126 348.35,-126 345.35,-122 261.65,-122 261.65,-86 372.35,-86 372.35,-122"/>
<text text-anchor="middle" x="317" y="-99.8" font-family="Times,serif" font-size="14.00">DatabaseModule</text>
</g>
<!-- UrlsModule -->
<g id="node2" class="node">
<title>UrlsModule</title>
<polygon fill="#8dd3c7" stroke="black" points="290.65,-187 287.65,-191 266.65,-191 263.65,-187 207.35,-187 207.35,-151 290.65,-151 290.65,-187"/>
<text text-anchor="middle" x="249" y="-164.8" font-family="Times,serif" font-size="14.00">UrlsModule</text>
</g>
<!-- DatabaseModule&#45;&gt;UrlsModule -->
<g id="edge1" class="edge">
<title>DatabaseModule&#45;&gt;UrlsModule</title>
<path fill="none" stroke="black" d="M276.2,-122.11C276.2,-122.11 276.2,-140.99 276.2,-140.99"/>
<polygon fill="black" stroke="black" points="272.7,-140.99 276.2,-150.99 279.7,-140.99 272.7,-140.99"/>
</g>
<!-- UrlsService -->
<g id="node3" class="node">
<title>UrlsService</title>
<ellipse fill="#fdb462" stroke="black" cx="181" cy="-104" rx="56.73" ry="18"/>
<text text-anchor="middle" x="181" y="-99.8" font-family="Times,serif" font-size="14.00">UrlsService</text>
</g>
<!-- UrlsService&#45;&gt;UrlsModule -->
<g id="edge2" class="edge">
<title>UrlsService&#45;&gt;UrlsModule</title>
<path fill="none" stroke="black" d="M222.4,-116.53C222.4,-116.53 222.4,-140.85 222.4,-140.85"/>
<polygon fill="black" stroke="black" points="218.9,-140.85 222.4,-150.85 225.9,-140.85 218.9,-140.85"/>
</g>
</g>
</svg>
